HIERARCHY
ROOT Hips
{
  OFFSET 39.0545 98.889 3.70994
  CHANNELS 6 Xposition Yposition Zposition Zrotation Xrotation Yrotation
  JOINT spine
  {
    OFFSET 0 8.30103 0.477351
    CHANNELS 3 Zrotation Xrotation Yrotation
    JOINT spine1
    {
      OFFSET 0 10.4565 0
      CHANNELS 3 Zrotation Xrotation Yrotation
      JOINT spine2
      {
        OFFSET 0 10.0192 0
        CHANNELS 3 Zrotation Xrotation Yrotation
        JOINT Neck
        {
          OFFSET 0 25.7235 1.22641
          CHANNELS 3 Zrotation Xrotation Yrotation
          JOINT Head
          {
            OFFSET 0 7.77175 0
            CHANNELS 3 Zrotation Xrotation Yrotation
            End Site
            {
              OFFSET 0 18.812 -6.20394
            }
          }
        }
        JOINT RightShoulder
        {
          OFFSET -4.2188 10.82 -0.587439
          CHANNELS 3 Zrotation Xrotation Yrotation
          JOINT RightArm
          {
            OFFSET 0 14.1914 0
            CHANNELS 3 Zrotation Xrotation Yrotation
            JOINT RightArmRoll
            {
              OFFSET 0 7.16408 0
              CHANNELS 3 Zrotation Xrotation Yrotation
              JOINT RightForeArm
              {
                OFFSET 0 20.8665 0
                CHANNELS 3 Zrotation Xrotation Yrotation
                JOINT RightForeArmRoll
                {
                  OFFSET 0 8.03921 0
                  CHANNELS 3 Zrotation Xrotation Yrotation
                  JOINT RightHand
                  {
                    OFFSET 0 16.133 0
                    CHANNELS 3 Zrotation Xrotation Yrotation
                    End Site
                    {
                      OFFSET 0 0 0
                    }
                  }
                }
              }
            }
          }
        }
        JOINT LeftShoulder
        {
          OFFSET 4.2188 10.82 -0.587439
          CHANNELS 3 Zrotation Xrotation Yrotation
          JOINT LeftArm
          {
            OFFSET 0 14.1914 0
            CHANNELS 3 Zrotation Xrotation Yrotation
            JOINT LeftArmRoll
            {
              OFFSET 0 7.16408 0
              CHANNELS 3 Zrotation Xrotation Yrotation
              JOINT LeftForeArm
              {
                OFFSET 0 20.8665 0
                CHANNELS 3 Zrotation Xrotation Yrotation
                JOINT LeftForeArmRoll
                {
                  OFFSET 0 8.03921 0
                  CHANNELS 3 Zrotation Xrotation Yrotation
                  JOINT LeftHand
                  {
                    OFFSET 0 16.133 0
                    CHANNELS 3 Zrotation Xrotation Yrotation
                    End Site
                    {
                      OFFSET 0 0 0
                    }
                  }
                }
              }
            }
          }
        }
      }
    }
  }
  JOINT RightUpLeg
  {
    OFFSET -7.35773 -1.34921 -1.13181
    CHANNELS 3 Zrotation Xrotation Yrotation
    JOINT RightUpLegRoll
    {
      OFFSET 0 18.9168 0
      CHANNELS 3 Zrotation Xrotation Yrotation
      JOINT RightLeg
      {
        OFFSET 0 -23.4256 0
        CHANNELS 3 Zrotation Xrotation Yrotation
        JOINT RightLegRoll
        {
          OFFSET 0 23.5023 0
          CHANNELS 3 Zrotation Xrotation Yrotation
          JOINT RightFoot
          {
            OFFSET 0 19.5617 0
            CHANNELS 3 Zrotation Xrotation Yrotation
            JOINT RightToeBase
            {
              OFFSET 0 16.3526 0
              CHANNELS 3 Zrotation Xrotation Yrotation
              End Site
              {
                OFFSET 0.00693125 7.91943 -0.912837
              }
            }
          }
        }
      }
    }
  }
  JOINT LeftUpLeg
  {
    OFFSET 7.35773 -1.34921 -1.13181
    CHANNELS 3 Zrotation Xrotation Yrotation
    JOINT LeftUpLegRoll
    {
      OFFSET 0 18.9169 0
      CHANNELS 3 Zrotation Xrotation Yrotation
      JOINT LeftLeg
      {
        OFFSET 0 23.4255 0
        CHANNELS 3 Zrotation Xrotation Yrotation
        JOINT LeftLegRoll
        {
          OFFSET 0 23.7195 0
          CHANNELS 3 Zrotation Xrotation Yrotation
          JOINT LeftFoot
          {
            OFFSET 0 19.3444 0
            CHANNELS 3 Zrotation Xrotation Yrotation
            JOINT LeftToeBase
            {
              OFFSET 0 16.3526 0
              CHANNELS 3 Zrotation Xrotation Yrotation
              End Site
              {
                OFFSET -0.0310629 7.91944 -0.912836
              }
            }
          }
        }
      }
    }
  }
}
MOTION
Frames: 4
Frame Time: 0.00208333
39.4586 98.8699 4.07409 1.16675 -1.05548 0.227045 -0.115007 -1.89838 0.208999 -0.231702 0.197231 0.43707 -0.231608 1.84229 0.440954 8.08725 32.0594 -5.04082 -8.64237 -16.7397 -3.69046 33.1466 -12.4791 -8.59582 10.2545 45.3127 96.0074 -1.69951e-006 3.37456e-006 -1.55023e-005 -114.99 81.9494 126.331 -2.90314e-005 5.97618e-007 -3.00608 8.02959 -4.95142 0.697655 -65.4805 2.3508 -0.441136 -98.64 8.28182 -18.6169 5.43488e-006 1.88274e-006 -3.41946e-006 -9.70773 4.96287 0.996035 5.72116e-006 1.9874e-006 3.00001 -8.02903 -4.95147 -0.697695 174.744 0.807987 1.5713 180 7.0155e-015 178.936 176.166 6.59745 179.76 1.5948e-006 1.71921e-006 0.0788497 -19.1227 68.5789 20.0316 8.13649 25.2327 -3.48774 -176.946 -1.09172 1.4751 4.54188e-006 -4.6773e-006 -1.11085 -3.79249 -6.74652 0.383214 3.88482e-006 2.74377e-007 -0.0741628 17.7102 66.6127 -18.4391 -8.13649 25.2327 3.48773 
39.4556 98.8689 4.07974 1.16917 -1.05552 0.228863 -0.114284 -1.90008 0.209382 -0.230198 0.194061 0.437429 -0.230254 1.83912 0.441292 8.05379 32.0901 -5.02917 -8.62097 -16.775 -3.6883 33.1068 -12.4716 -8.58961 10.1556 45.3258 96.1168 -1.69951e-006 3.37456e-006 -1.55023e-005 -119.215 81.7584 130.728 -2.90314e-005 5.97618e-007 -3.00608 8.02959 -4.95142 0.697655 -65.5121 2.37169 -0.447654 -98.63 8.26722 -18.6127 5.43488e-006 1.88274e-006 -3.41946e-006 -9.71781 4.96803 0.996621 5.72116e-006 1.9874e-006 3.00001 -8.02903 -4.95147 -0.697695 174.744 0.806911 1.57068 180 7.0155e-015 178.936 176.167 6.5996 179.761 1.5948e-006 1.71921e-006 0.078935 -19.1239 68.5803 20.0328 8.13649 25.2327 -3.48774 -176.946 -1.09427 1.47399 4.54188e-006 -4.6773e-006 -1.11074 -3.79363 -6.74436 0.383098 3.88482e-006 2.74377e-007 -0.0740435 17.7101 66.6124 -18.4391 -8.13649 25.2327 3.48773 
39.455 98.8696 4.08399 1.17133 -1.05581 0.230691 -0.113366 -1.90204 0.209903 -0.228174 0.190502 0.437792 -0.228463 1.83556 0.441627 8.01556 32.1276 -5.01578 -8.59469 -16.8153 -3.68516 33.0644 -12.4623 -8.58177 10.0658 45.3402 96.2121 -1.69951e-006 3.37456e-006 -1.55023e-005 -123.197 81.5268 134.878 -2.90314e-005 5.97618e-007 -3.00608 8.02959 -4.95142 0.697655 -65.5482 2.39697 -0.455861 -98.615 8.25008 -18.6096 5.43488e-006 1.88274e-006 -3.41946e-006 -9.72892 4.97414 0.997277 5.72116e-006 1.9874e-006 3.00001 -8.02903 -4.95147 -0.697695 174.745 0.805582 1.5696 180 7.0155e-015 178.936 176.169 6.60164 179.761 1.5948e-006 1.71921e-006 0.0790265 -19.1249 68.5817 20.034 8.13649 25.2327 -3.48774 -176.945 -1.09694 1.47253 4.54188e-006 -4.6773e-006 -1.11062 -3.79491 -6.74222 0.382971 3.88482e-006 2.74377e-007 -0.0739253 17.7099 66.612 -18.4389 -8.13649 25.2327 3.48773 
39.4494 98.8693 4.08839 1.17326 -1.05632 0.232549 -0.112285 -1.90421 0.210541 -0.22571 0.186623 0.438158 -0.226302 1.83168 0.441959 7.97317 32.1707 -5.00087 -8.56401 -16.86 -3.68111 33.0201 -12.4517 -8.57253 9.98438 45.3558 96.2948 -1.69951e-006 3.37456e-006 -1.55023e-005 -126.924 81.2587 138.769 -2.90314e-005 5.97618e-007 -3.00608 8.02959 -4.95142 0.697655 -65.588 2.42596 -0.465494 -98.5959 8.23082 -18.6073 5.43488e-006 1.88274e-006 -3.41946e-006 -9.74094 4.98113 0.997997 5.72116e-006 1.9874e-006 3.00001 -8.02903 -4.95147 -0.697695 174.745 0.803981 1.56808 180 7.0155e-015 178.936 176.171 6.60352 179.761 1.5948e-006 1.71921e-006 0.0791225 -19.1259 68.5829 20.035 8.13649 25.2327 -3.48774 -176.943 -1.09969 1.47079 4.54188e-006 -4.6773e-006 -1.1105 -3.79627 -6.74014 0.382838 3.88482e-006 2.74377e-007 -0.0738086 17.7097 66.6115 -18.4387 -8.13649 25.2327 3.48773 
